<svg version="1.1" id="Layer_1" xmlns="http://www.w3.org/2000/svg" xmlns:xlink="http://www.w3.org/1999/xlink" x="0px" y="0px"
	 width="100%" viewBox="0 0 271 244" enable-background="new 0 0 271 244" xml:space="preserve">
<path fill="#FEFDFF" opacity="1.000000" stroke="none" 
	d="
M153.000000,245.000000 
	C102.000015,245.000000 51.500023,245.000000 1.000027,245.000000 
	C1.000018,163.666702 1.000018,82.333397 1.000009,1.000071 
	C91.333282,1.000047 181.666565,1.000047 271.999878,1.000024 
	C271.999939,82.333260 271.999939,163.666519 271.999969,244.999893 
	C232.500000,245.000000 193.000000,245.000000 153.000000,245.000000 
M91.485588,151.722565 
	C76.332603,151.906616 68.275909,158.572128 61.277767,177.079056 
	C54.024677,166.517838 51.339176,154.664261 49.051136,142.073898 
	C46.672882,144.039795 44.942005,145.470566 43.088062,147.003052 
	C40.203598,144.294922 37.511860,141.767731 33.783760,138.267532 
	C37.163593,175.455765 53.882820,202.944107 85.067581,220.301926 
	C122.163658,240.950073 159.050613,238.234985 193.798492,214.207047 
	C221.753189,194.876541 234.878540,161.724625 234.218094,139.111206 
	C231.623062,141.900604 229.288788,144.409714 226.792450,147.093018 
	C224.894638,145.426819 223.196594,143.935989 221.040665,142.043152 
	C218.900909,154.828094 215.816071,166.740692 208.506287,177.654434 
	C204.375427,162.149292 195.788300,153.415451 183.191025,151.967773 
	C171.588608,150.634384 162.010880,154.379074 154.709000,164.285660 
	C161.990005,170.181366 167.620071,177.047256 168.591278,186.283798 
	C169.405716,194.029297 169.280319,201.895355 169.127106,209.699310 
	C169.101822,210.988358 166.795380,212.232635 165.543152,213.497604 
	C165.094604,213.198059 164.646042,212.898499 164.197495,212.598938 
	C164.197495,205.465988 164.372910,198.327820 164.161606,191.201126 
	C163.696976,175.530838 149.544693,162.504364 134.108307,163.234192 
	C120.880692,163.859604 105.826477,173.843140 105.819801,193.334152 
	C105.817604,199.766449 105.819466,206.198746 105.819466,212.631027 
	C105.325523,212.914856 104.831573,213.198669 104.337631,213.482483 
	C103.000168,212.017883 100.578384,210.614410 100.491837,209.079285 
	C99.557495,192.505783 99.644005,176.123337 114.638542,164.560181 
	C114.834167,164.409317 114.791618,163.949631 114.932251,163.303009 
	C109.204185,156.211502 101.932335,151.854568 91.485588,151.722565 
M160.239838,151.603531 
	C161.264114,150.890091 162.288406,150.176636 163.333328,149.448807 
	C153.757431,137.782104 155.743546,131.717545 159.584930,125.549988 
	C164.867172,117.069084 173.221359,114.949051 183.387909,118.714447 
	C183.135498,100.969254 175.776138,87.603127 161.790237,78.233749 
	C145.064148,67.028694 127.284309,66.489288 109.919647,76.520409 
	C94.277962,85.556221 86.211845,99.628418 85.495255,118.504570 
	C95.602303,115.187805 104.073151,116.689651 109.460800,125.662209 
	C114.599716,134.220535 112.304237,142.245575 105.673645,149.294312 
	C108.537125,151.477142 111.121452,153.822098 114.059334,155.574203 
	C116.649345,157.118851 117.200439,162.001022 121.773109,160.792465 
	C120.121101,157.295105 118.205559,154.310318 117.275139,151.044846 
	C115.400917,144.466980 117.011307,138.375824 121.924797,133.635788 
	C127.429489,128.325409 134.170456,127.126694 141.271729,129.868988 
	C149.530396,133.058243 154.634811,142.746124 152.033340,150.503281 
	C150.878769,153.946030 148.578201,157.004456 146.797821,160.237335 
	C147.273529,160.703018 147.749222,161.168701 148.224930,161.634384 
	C152.014175,158.406311 155.803421,155.178253 160.239838,151.603531 
M35.396763,132.111435 
	C37.662205,134.960510 39.927647,137.809586 41.200901,139.410858 
	C48.652973,132.047501 54.933197,125.842049 61.051880,119.796219 
	C57.949108,119.796219 54.179863,119.796219 49.811047,119.796219 
	C56.517303,85.217499 76.846275,63.134930 108.994347,50.925697 
	C108.747849,48.459869 108.310760,45.998772 108.309853,43.537510 
	C108.308952,41.107285 108.749107,38.676895 109.056862,35.644650 
	C70.302979,47.562870 46.051983,72.523720 36.239887,111.278328 
	C34.192871,119.363388 34.526962,119.444717 26.291756,119.796661 
	C25.700182,119.821938 25.112814,119.945557 22.753086,120.257446 
	C27.455610,124.653610 31.175888,128.131516 35.396763,132.111435 
M187.131256,47.396820 
	C178.758118,42.483131 170.270996,37.878124 160.071930,36.595921 
	C160.071930,41.916557 160.071930,46.369896 160.071930,50.947514 
	C192.255875,62.814266 212.256241,85.142578 219.358185,119.876320 
	C214.765549,119.876320 210.936142,119.876320 207.336670,119.876320 
	C213.845261,126.393883 220.089066,132.646301 225.839233,138.404388 
	C231.774536,132.461655 238.027527,126.200851 244.482788,119.737511 
	C242.862366,119.737511 241.242294,119.737511 239.622223,119.737511 
	C237.864044,119.737511 236.105865,119.737511 234.554657,119.737511 
	C228.832947,88.680138 214.230423,64.347313 187.131256,47.396820 
M119.753288,58.749790 
	C120.650925,59.484234 121.503693,60.283268 122.453285,60.942921 
	C130.128860,66.274918 139.734833,66.138306 147.069962,60.623215 
	C154.355637,55.145313 157.408066,45.503548 154.521561,37.085670 
	C151.490463,28.246119 143.325760,22.566273 133.876694,22.866213 
	C125.477966,23.132812 119.165535,27.099787 115.651436,34.635342 
	C111.701698,43.105072 113.126373,51.119141 119.753288,58.749790 
M85.216400,144.311661 
	C86.022949,144.899109 86.781105,145.572067 87.643745,146.060425 
	C94.260330,149.806137 102.080864,147.515839 105.574821,140.841858 
	C108.843201,134.598770 105.857109,126.187752 99.296776,123.158249 
	C94.218178,120.812996 87.943138,122.223946 84.370827,126.514343 
	C79.947632,131.826660 80.047310,137.248550 85.216400,144.311661 
M161.388687,134.602982 
	C162.442734,137.185059 163.143021,139.994125 164.624130,142.302155 
	C167.749344,147.172211 173.723709,148.981644 179.027893,147.128601 
	C184.363007,145.264755 187.927139,140.191589 187.860184,134.556793 
	C187.796005,129.155319 183.760956,123.991783 178.399841,122.450668 
	C173.112747,120.930840 167.039337,123.193817 164.144531,127.988335 
	C163.044189,129.810730 162.405380,131.911774 161.388687,134.602982 
M132.831543,159.140503 
	C133.662659,159.153778 134.497986,159.227966 135.324234,159.170822 
	C142.975052,158.641769 147.742752,152.838898 147.108261,144.856125 
	C146.580093,138.210724 140.081726,132.728943 133.353226,133.252853 
	C128.002014,133.669540 122.632286,138.794174 121.924690,144.159760 
	C120.943802,151.597717 124.125534,156.300125 132.831543,159.140503 
z"/>
<path fill="#8E55FE" opacity="1.000000" stroke="none" 
	d="
M91.951172,151.723724 
	C101.932335,151.854568 109.204185,156.211502 114.932251,163.303009 
	C114.791618,163.949631 114.834167,164.409317 114.638542,164.560181 
	C99.644005,176.123337 99.557495,192.505783 100.491837,209.079285 
	C100.578384,210.614410 103.000168,212.017883 104.337631,213.482483 
	C104.831573,213.198669 105.325523,212.914856 105.819466,212.631027 
	C105.819466,206.198746 105.817604,199.766449 105.819801,193.334152 
	C105.826477,173.843140 120.880692,163.859604 134.108307,163.234192 
	C149.544693,162.504364 163.696976,175.530838 164.161606,191.201126 
	C164.372910,198.327820 164.197495,205.465988 164.197495,212.598938 
	C164.646042,212.898499 165.094604,213.198059 165.543152,213.497604 
	C166.795380,212.232635 169.101822,210.988358 169.127106,209.699310 
	C169.280319,201.895355 169.405716,194.029297 168.591278,186.283798 
	C167.620071,177.047256 161.990005,170.181366 154.709000,164.285660 
	C162.010880,154.379074 171.588608,150.634384 183.191025,151.967773 
	C195.788300,153.415451 204.375427,162.149292 208.506287,177.654434 
	C215.816071,166.740692 218.900909,154.828094 221.040665,142.043152 
	C223.196594,143.935989 224.894638,145.426819 226.792450,147.093018 
	C229.288788,144.409714 231.623062,141.900604 234.218094,139.111206 
	C234.878540,161.724625 221.753189,194.876541 193.798492,214.207047 
	C159.050613,238.234985 122.163658,240.950073 85.067581,220.301926 
	C53.882820,202.944107 37.163593,175.455765 33.783760,138.267532 
	C37.511860,141.767731 40.203598,144.294922 43.088062,147.003052 
	C44.942005,145.470566 46.672882,144.039795 49.051136,142.073898 
	C51.339176,154.664261 54.024677,166.517838 61.277767,177.079056 
	C68.275909,158.572128 76.332603,151.906616 91.951172,151.723724 
z"/>
<path fill="#4D15BD" opacity="1.000000" stroke="none" 
	d="
M159.916260,151.776855 
	C155.803421,155.178253 152.014175,158.406311 148.224930,161.634384 
	C147.749222,161.168701 147.273529,160.703018 146.797821,160.237335 
	C148.578201,157.004456 150.878769,153.946030 152.033340,150.503281 
	C154.634811,142.746124 149.530396,133.058243 141.271729,129.868988 
	C134.170456,127.126694 127.429489,128.325409 121.924797,133.635788 
	C117.011307,138.375824 115.400917,144.466980 117.275139,151.044846 
	C118.205559,154.310318 120.121101,157.295105 121.773109,160.792465 
	C117.200439,162.001022 116.649345,157.118851 114.059334,155.574203 
	C111.121452,153.822098 108.537125,151.477142 105.673645,149.294312 
	C112.304237,142.245575 114.599716,134.220535 109.460800,125.662209 
	C104.073151,116.689651 95.602303,115.187805 85.495255,118.504570 
	C86.211845,99.628418 94.277962,85.556221 109.919647,76.520409 
	C127.284309,66.489288 145.064148,67.028694 161.790237,78.233749 
	C175.776138,87.603127 183.135498,100.969254 183.387909,118.714447 
	C173.221359,114.949051 164.867172,117.069084 159.584930,125.549988 
	C155.743546,131.717545 153.757431,137.782104 163.333328,149.448807 
	C162.288406,150.176636 161.264114,150.890091 159.916260,151.776855 
z"/>
<path fill="#4E18BE" opacity="1.000000" stroke="none" 
	d="
M35.146461,131.860428 
	C31.175888,128.131516 27.455610,124.653610 22.753086,120.257446 
	C25.112814,119.945557 25.700182,119.821938 26.291756,119.796661 
	C34.526962,119.444717 34.192871,119.363388 36.239887,111.278328 
	C46.051983,72.523720 70.302979,47.562870 109.056862,35.644650 
	C108.749107,38.676895 108.308952,41.107285 108.309853,43.537510 
	C108.310760,45.998772 108.747849,48.459869 108.994347,50.925697 
	C76.846275,63.134930 56.517303,85.217499 49.811047,119.796219 
	C54.179863,119.796219 57.949108,119.796219 61.051880,119.796219 
	C54.933197,125.842049 48.652973,132.047501 41.200901,139.410858 
	C39.927647,137.809586 37.662205,134.960510 35.146461,131.860428 
z"/>
<path fill="#4E17BD" opacity="1.000000" stroke="none" 
	d="
M187.433075,47.601608 
	C214.230423,64.347313 228.832947,88.680138 234.554657,119.737511 
	C236.105865,119.737511 237.864044,119.737511 239.622223,119.737511 
	C241.242294,119.737511 242.862366,119.737511 244.482788,119.737511 
	C238.027527,126.200851 231.774536,132.461655 225.839233,138.404388 
	C220.089066,132.646301 213.845261,126.393883 207.336670,119.876320 
	C210.936142,119.876320 214.765549,119.876320 219.358185,119.876320 
	C212.256241,85.142578 192.255875,62.814266 160.071930,50.947514 
	C160.071930,46.369896 160.071930,41.916557 160.071930,36.595921 
	C170.270996,37.878124 178.758118,42.483131 187.433075,47.601608 
z"/>
<path fill="#4D15BD" opacity="1.000000" stroke="none" 
	d="
M119.497429,58.495197 
	C113.126373,51.119141 111.701698,43.105072 115.651436,34.635342 
	C119.165535,27.099787 125.477966,23.132812 133.876694,22.866213 
	C143.325760,22.566273 151.490463,28.246119 154.521561,37.085670 
	C157.408066,45.503548 154.355637,55.145313 147.069962,60.623215 
	C139.734833,66.138306 130.128860,66.274918 122.453285,60.942921 
	C121.503693,60.283268 120.650925,59.484234 119.497429,58.495197 
z"/>
<path fill="#9059FD" opacity="1.000000" stroke="none" 
	d="
M84.952362,144.047409 
	C80.047310,137.248550 79.947632,131.826660 84.370827,126.514343 
	C87.943138,122.223946 94.218178,120.812996 99.296776,123.158249 
	C105.857109,126.187752 108.843201,134.598770 105.574821,140.841858 
	C102.080864,147.515839 94.260330,149.806137 87.643745,146.060425 
	C86.781105,145.572067 86.022949,144.899109 84.952362,144.047409 
z"/>
<path fill="#9058FD" opacity="1.000000" stroke="none" 
	d="
M161.472443,134.244385 
	C162.405380,131.911774 163.044189,129.810730 164.144531,127.988335 
	C167.039337,123.193817 173.112747,120.930840 178.399841,122.450668 
	C183.760956,123.991783 187.796005,129.155319 187.860184,134.556793 
	C187.927139,140.191589 184.363007,145.264755 179.027893,147.128601 
	C173.723709,148.981644 167.749344,147.172211 164.624130,142.302155 
	C163.143021,139.994125 162.442734,137.185059 161.472443,134.244385 
z"/>
<path fill="#8F57FE" opacity="1.000000" stroke="none" 
	d="
M132.416275,159.096222 
	C124.125534,156.300125 120.943802,151.597717 121.924690,144.159760 
	C122.632286,138.794174 128.002014,133.669540 133.353226,133.252853 
	C140.081726,132.728943 146.580093,138.210724 147.108261,144.856125 
	C147.742752,152.838898 142.975052,158.641769 135.324234,159.170822 
	C134.497986,159.227966 133.662659,159.153778 132.416275,159.096222 
z"/>
</svg>